<svg width="199" height="235" viewBox="0 0 199 235" fill="none" xmlns="http://www.w3.org/2000/svg">
<path d="M0.798496 104.943C12.3385 100.943 21.7785 104.393 27.7885 114.863C33.1785 124.243 39.4385 138.683 47.3785 146.493C48.8385 147.923 51.9985 149.503 54.0485 150.073C56.8785 150.023 61.6385 142.443 62.0585 139.783C64.5685 123.853 61.1785 114.443 59.9785 99.9231C59.3185 91.9131 60.4985 83.2331 59.9485 75.1531C58.6185 55.5631 54.2585 39.6231 56.7085 19.0431C57.4885 12.4631 65.5885 5.55312 72.2085 8.95312C84.1085 15.0631 79.6685 42.2531 80.4185 53.6131C80.8685 60.4131 82.8785 68.1731 83.6785 75.1531C84.9185 85.9431 82.4985 98.9231 91.2085 107.553C94.2885 109.093 96.4285 102.213 96.6585 99.9631C99.2085 76.0931 95.0685 52.4831 96.5885 28.7231C97.0585 21.3631 98.7185 8.14312 104.299 3.00312C108.878 -1.21687 116.988 -1.45688 119.008 5.31312C119.488 16.5431 122.368 29.6131 122.558 40.5831C122.698 48.7331 122.588 57.2531 122.558 65.3731C122.528 73.8031 119.858 91.9031 123.038 98.3131C123.628 99.5031 124.039 100.763 125.229 101.553C134.119 103.583 134.688 65.3831 135.538 60.1231C136.558 53.7631 139.288 45.9731 140.578 39.2831C142.048 31.6631 142.028 3.11313 157.028 10.4331C163.008 13.3531 161.708 36.3431 161.378 42.8331C160.628 57.6331 159.048 76.2431 156.518 90.8131C155.508 96.6231 147.018 117.223 157.658 117.743C161.608 117.933 165.568 107.443 167.228 103.683C172.748 91.1331 177.008 76.5031 182.678 64.1431C184.238 60.7331 187.588 55.7831 191.818 56.4431C204.288 58.3931 196.198 82.6431 193.718 90.2831C189.778 102.413 179.398 118.773 176.698 129.333C170.858 152.103 175.778 176.123 167.458 200.973C162.128 216.883 150.538 236.043 130.878 233.943C123.748 233.183 114.298 227.853 107.938 227.943C104.298 227.993 98.9785 230.513 94.8785 230.843C83.0285 231.793 61.5685 222.163 54.1085 212.573C35.6485 188.853 21.3585 161.893 9.1285 134.623C4.4785 124.243 -2.3415 118.293 0.798496 104.963V104.943Z" fill="white"/>
</svg>
